<?xml version="1.0" encoding="UTF-8" standalone="no"?>
<!-- Created with Inkscape (http://www.inkscape.org/) -->

<svg
   version="1.1"
   id="svg1"
   width="150.77301"
   height="150.77301"
   viewBox="0 0 150.77301 150.77301"
   sodipodi:docname="invert.svg"
   inkscape:version="1.3.2 (091e20ef0f, 2023-11-25)"
   xmlns:inkscape="http://www.inkscape.org/namespaces/inkscape"
   xmlns:sodipodi="http://sodipodi.sourceforge.net/DTD/sodipodi-0.dtd"
   xmlns="http://www.w3.org/2000/svg"
   xmlns:svg="http://www.w3.org/2000/svg">
  <defs
     id="defs1" />
  <sodipodi:namedview
     id="namedview1"
     pagecolor="#ffffff"
     bordercolor="#000000"
     borderopacity="0.25"
     inkscape:showpageshadow="2"
     inkscape:pageopacity="0.0"
     inkscape:pagecheckerboard="0"
     inkscape:deskcolor="#d1d1d1"
     inkscape:zoom="11.155843"
     inkscape:cx="41.189179"
     inkscape:cy="53.066363"
     inkscape:window-width="1920"
     inkscape:window-height="1051"
     inkscape:window-x="0"
     inkscape:window-y="0"
     inkscape:window-maximized="1"
     inkscape:current-layer="g1" />
  <g
     inkscape:groupmode="layer"
     inkscape:label="Image"
     id="g1">
    <path
       style="fill:#ffffff;fill-opacity:1"
       d="m 18.428825,144.63588 c -1.700695,-0.68551 -3.210694,-2.04847 -4.093704,-3.69506 -0.493283,-0.91985 -0.632792,-1.69404 -0.636772,-3.53373 -0.0044,-2.03649 0.102128,-2.53546 0.785922,-3.68098 1.001311,-1.67745 115.431119,-116.056796 116.853159,-116.801631 0.7468,-0.391161 1.67952,-0.540979 3.3865,-0.543959 2.04377,-0.0036 2.53824,0.10312 3.73292,0.805411 3.69927,2.174614 5.04848,6.524709 3.18515,10.269464 -0.9229,1.854773 -115.040767,115.959535 -116.897142,116.883725 -1.852647,0.92233 -4.460099,1.04484 -6.316033,0.29676 z m 61.669337,-12.40475 c -2.72663,-1.23168 -4.711657,-4.1997 -4.711657,-7.0449 0,-2.8452 1.985027,-5.81323 4.711657,-7.04491 1.30586,-0.58988 1.786056,-0.5986 32.981598,-0.5986 31.19554,0 31.67573,0.009 32.98159,0.5986 2.72663,1.23168 4.71166,4.19971 4.71166,7.04491 0,2.8452 -1.98503,5.81322 -4.71166,7.0449 -1.30586,0.58989 -1.78605,0.5986 -32.98159,0.5986 -31.195542,0 -31.675738,-0.009 -32.981598,-0.5986 z M 34.844585,79.36347 C 33.082137,79.005998 32.086767,78.418094 30.703826,76.917781 28.655627,74.695747 28.564418,71.373379 28.564418,65.814269 V 55.138168 l -11.263804,-0.09254 c -5.052099,-0.04151 -7.3243669,-0.120994 -8.5889569,-0.715188 -2.606973,-1.22494 -4.711657,-4.347975 -4.711657,-6.991389 0,-2.890614 1.934016,-5.929848 4.548042,-7.147079 1.4812719,-0.68976 2.8617839,-0.693265 8.7392439,-0.696127 l 11.250476,-0.0029 0.08695,-14.06135 0.08695,-8.06135 0.883436,-1.601759 c 1.369794,-2.483577 3.935276,-4.073046 6.646928,-4.118169 2.0864,-0.03472 4.048065,0.779513 5.587954,2.319402 2.353193,2.353192 2.341805,3.912526 2.341805,11.882432 v 13.640794 l 12.588958,0.0029 8.588957,0.0029 1.488768,0.693251 c 2.614026,1.217232 4.548042,4.256465 4.548042,7.147079 0,2.643414 -2.104684,5.766449 -4.711656,6.991389 -1.273746,0.598496 -3.309602,0.665875 -9.90121,0.713488 l -12.576056,0.09084 -0.08652,11.393826 -0.08652,7.393826 -0.857311,1.547287 c -1.668216,3.01082 -4.997143,4.568263 -8.322645,3.893762 z"
       id="path1"
       sodipodi:nodetypes="ssssscsssscssscsssccsscssssccccsssscccsssscccscc" />
  </g>
</svg>
